<svg xmlns="http://www.w3.org/2000/svg" width="398" height="383"><g><title>background</title><rect id="canvas_background" width="400" height="385" x="-1" y="-1" fill="none"/></g><g><title>Layer 1</title><ellipse id="svg_15" cx="199.661" cy="191.616" fill="#2380dd" stroke="null" stroke-opacity="null" stroke-width="null" rx="198.04" ry="190.407"/><path id="svg_1" fill="#ffcb00" stroke="null" d="m75.824682,154.448021l-15.659872,0l-4.805772,-14.499179l-4.805772,14.499179l-15.659872,0l12.8093,8.92187l-4.988501,14.499179l12.644844,-8.985663l12.644844,8.985663l-4.997637,-14.499179l12.818437,-8.92187z"/><path id="svg_2" fill="#ffcb00" stroke="null" d="m101.221125,99.301465l-15.65987,0l-4.80577,-14.49918l-4.80577,14.49918l-15.65988,0l12.8093,8.92187l-4.9885,14.49917l12.64485,-8.98566l12.64484,8.98566l-4.99764,-14.49917l12.81844,-8.92187z"/><path id="svg_3" fill="#ffcb00" stroke="null" d="m339.031227,266.917998l-15.65987,0l-4.80577,-14.49918l-4.80577,14.49918l-15.65988,0l12.8093,8.92187l-4.9885,14.49917l12.64485,-8.98566l12.64484,8.98566l-4.99764,-14.49917l12.81844,-8.92187z"/><path id="svg_4" fill="#ffcb00" stroke="null" d="m149.646324,307.552307l-15.65987,0l-4.80577,-14.49918l-4.80577,14.49918l-15.65988,0l12.8093,8.92187l-4.9885,14.49917l12.64485,-8.98566l12.64484,8.98566l-4.99764,-14.49917l12.81844,-8.92187z"/><path id="svg_5" fill="#ffcb00" stroke="null" d="m286.787121,308.277922l-15.65987,0l-4.80577,-14.49918l-4.80577,14.49918l-15.65988,0l12.8093,8.92187l-4.9885,14.49917l12.64485,-8.98566l12.64484,8.98566l-4.99764,-14.49917l12.81844,-8.92187z"/><path id="svg_6" fill="#ffcb00" stroke="null" d="m99.579043,264.741163l-15.65987,0l-4.80577,-14.49918l-4.80577,14.49918l-15.65988,0l12.8093,8.92187l-4.9885,14.49917l12.64485,-8.98566l12.64484,8.98566l-4.99764,-14.49917l12.81844,-8.92187z"/><path id="svg_7" fill="#ffcb00" stroke="null" d="m73.456988,211.77143l-15.65987,0l-4.80577,-14.49918l-4.80577,14.49918l-15.65988,0l12.8093,8.92187l-4.9885,14.49917l12.64485,-8.98566l12.64484,8.98566l-4.99764,-14.49917l12.81844,-8.92187z"/><path id="svg_8" fill="#ffcb00" stroke="null" d="m220.030749,326.762132l-15.65987,0l-4.80577,-14.49917l-4.80578,14.49917l-15.65987,0l12.8093,8.92187l-4.9885,14.49918l12.64485,-8.98566l12.64484,8.98566l-4.99764,-14.49918l12.81844,-8.92187z"/><path id="svg_9" fill="#ffcb00" stroke="null" d="m364.236827,152.271187l-15.65987,0l-4.80577,-14.49917l-4.80578,14.49917l-15.65987,0l12.8093,8.92187l-4.9885,14.49918l12.64485,-8.98566l12.64484,8.98566l-4.99764,-14.49918l12.81844,-8.92187z"/><path id="svg_10" fill="#ffcb00" stroke="null" d="m368.055744,211.77143l-15.65987,0l-4.80577,-14.49917l-4.80578,14.49917l-15.65987,0l12.8093,8.92187l-4.9885,14.49918l12.64485,-8.98566l12.64484,8.98566l-4.99764,-14.49918l12.81844,-8.92187z"/><path id="svg_11" fill="#ffcb00" stroke="null" d="m288.238348,55.229943l-15.65987,0l-4.80577,-14.49917l-4.80578,14.49917l-15.65987,0l12.8093,8.92187l-4.9885,14.49918l12.64485,-8.98566l12.64484,8.98566l-4.99764,-14.49918l12.81844,-8.92187z"/><path id="svg_12" fill="#ffcb00" stroke="null" d="m337.389155,95.673396l-15.65987,0l-4.80577,-14.49917l-4.80578,14.49917l-15.65987,0l12.8093,8.92187l-4.9885,14.49918l12.64485,-8.98566l12.64484,8.98566l-4.99764,-14.49918l12.81844,-8.92187z"/><path id="svg_13" fill="#ffcb00" stroke="null" d="m217.128301,39.801218l-15.65987,0l-4.80577,-14.49917l-4.80578,14.49917l-15.65987,0l12.8093,8.92187l-4.9885,14.49918l12.64485,-8.98566l12.64484,8.98566l-4.99764,-14.49918l12.81844,-8.92187z"/><path id="svg_14" fill="#ffcb00" stroke="null" d="m146.018257,56.49031l-15.65987,0l-4.80577,-14.49917l-4.80578,14.49917l-15.65987,0l12.8093,8.92187l-4.9885,14.49918l12.64485,-8.98566l12.64484,8.98566l-4.99764,-14.49918l12.81844,-8.92187z"/><ellipse id="svg_18" cx="22.516" cy="-30.857" fill="#2380dd" fill-opacity="null" stroke="null" stroke-opacity="null" stroke-width="null" rx="5.079" transform="rotate(51.340187072753906 22.51566696166993,-30.85652923583984)"/><g id="svg_33" transform="matrix(1.167031714559335,0,0,1.167031714559335,100.04821208072082,471.5877913362659)"><path id="svg_35" fill="#fff" d="m105.644945,-284.455637l0,22.938l-45.485,0l0,-22.938c0,-12.558 10.184,-22.743 22.744,-22.743c12.559,-0.001 22.741,10.182 22.741,22.743m-31.863,51.316c0,-5.039 4.085,-9.122 9.122,-9.122c5.039,0 9.122,4.083 9.122,9.122c0,3.889 -2.437,7.198 -5.864,8.514l0,29.277l-6.517,0l0,-29.277c-3.426,-1.315 -5.863,-4.627 -5.863,-8.514m58.579,52.549l0,0l0.001,-76.429l-0.001,0c0,-0.004 0.001,-0.008 0.001,-0.012c0,-2.478 -2.008,-4.487 -4.487,-4.487c-0.004,0 -0.008,0.001 -0.012,0.001l0,-0.001l-12.107,0l0,-22.937c0,-18.144 -14.709,-32.851 -32.852,-32.851c-18.144,0 -32.852,14.707 -32.852,32.851l0,22.938l-12.108,0l0,0.001c-0.004,0 -0.009,-0.001 -0.013,-0.001c-2.478,0.001 -4.485,2.009 -4.485,4.487c0,0.004 0.001,0.008 0.001,0.012l-0.001,0l0,76.429l0.001,0c0,0.007 -0.001,0.011 -0.001,0.015c0,2.475 2.008,4.486 4.486,4.486c0.004,0 0.009,-0.001 0.013,-0.001l0,0.001l89.921,0l0,-0.001c0.004,0 0.008,0.001 0.012,0.001c2.477,0 4.488,-2.008 4.488,-4.486c-0.004,-0.008 -0.005,-0.012 -0.005,-0.016"/></g></g></svg>